<svg xmlns="http://www.w3.org/2000/svg" viewBox="0 0 841.9 595.3">
  <g fill="#61DAFB">
    <path d="M669.1 595.3c-2.5 0-4.9-1-6.7-2.8l-22.9-22.9c-3.7-3.7-3.7-9.8 0-13.5 3.7-3.7 9.8-3.7 13.5 0l22.9 22.9c3.7 3.7 3.7 9.8 0 13.5-1.9 1.8-4.3 2.8-6.8 2.8zM420.9 595.3c-2.5 0-4.9-1-6.7-2.8l-22.9-22.9c-3.7-3.7-3.7-9.8 0-13.5 3.7-3.7 9.8-3.7 13.5 0l22.9 22.9c3.7 3.7 3.7 9.8 0 13.5-1.9 1.8-4.3 2.8-6.8 2.8zM172.7 595.3c-2.5 0-4.9-1-6.7-2.8l-22.9-22.9c-3.7-3.7-3.7-9.8 0-13.5 3.7-3.7 9.8-3.7 13.5 0l22.9 22.9c3.7 3.7 3.7 9.8 0 13.5-1.9 1.8-4.3 2.8-6.8 2.8zM669.1 0c-2.5 0-4.9 1-6.7 2.8l-22.9 22.9c-3.7 3.7-3.7 9.8 0 13.5 3.7 3.7 9.8 3.7 13.5 0l22.9-22.9c3.7-3.7 3.7-9.8 0-13.5-1.9-1.8-4.3-2.8-6.8-2.8zM420.9 0c-2.5 0-4.9 1-6.7 2.8l-22.9 22.9c-3.7 3.7-3.7 9.8 0 13.5 3.7 3.7 9.8 3.7 13.5 0l22.9-22.9c3.7-3.7 3.7-9.8 0-13.5-1.9-1.8-4.3-2.8-6.8-2.8zM172.7 0c-2.5 0-4.9 1-6.7 2.8l-22.9 22.9c-3.7 3.7-3.7 9.8 0 13.5 3.7 3.7 9.8 3.7 13.5 0l22.9-22.9c3.7-3.7 3.7-9.8 0-13.5-1.9-1.8-4.3-2.8-6.8-2.8z"/>
    <circle cx="420.9" cy="297.6" r="45.7"/>
    <path d="M520.5 78.1c-1.9-1.8-4.3-2.8-6.8-2.8-2.5 0-4.9 1-6.7 2.8l-22.9 22.9c-3.7 3.7-3.7 9.8 0 13.5 3.7 3.7 9.8 3.7 13.5 0l22.9-22.9c3.7-3.7 3.7-9.8 0-13.5zM321.3 78.1c-1.9-1.8-4.3-2.8-6.8-2.8-2.5 0-4.9 1-6.7 2.8l-22.9 22.9c-3.7 3.7-3.7 9.8 0 13.5 3.7 3.7 9.8 3.7 13.5 0l22.9-22.9c3.7-3.7 3.7-9.8 0-13.5zM520.5 517.2c-1.9-1.8-4.3-2.8-6.8-2.8-2.5 0-4.9 1-6.7 2.8l-22.9 22.9c-3.7 3.7-3.7 9.8 0 13.5 3.7 3.7 9.8 3.7 13.5 0l22.9-22.9c3.7-3.7 3.7-9.8 0-13.5zM321.3 517.2c-1.9-1.8-4.3-2.8-6.8-2.8-2.5 0-4.9 1-6.7 2.8l-22.9 22.9c-3.7 3.7-3.7 9.8 0 13.5 3.7 3.7 9.8 3.7 13.5 0l22.9-22.9c3.7-3.7 3.7-9.8 0-13.5z"/>
    <path d="M420.9 297.6c0-10.1 8.2-18.3 18.3-18.3h101.6c10.1 0 18.3 8.2 18.3 18.3s-8.2 18.3-18.3 18.3H439.2c-10.1 0-18.3-8.2-18.3-18.3zM420.9 297.6c0-10.1-8.2-18.3-18.3-18.3h-101.6c-10.1 0-18.3 8.2-18.3 18.3s8.2 18.3 18.3 18.3h101.6c10.1 0 18.3-8.2 18.3-18.3zM297.6 420.9c10.1 0 18.3-8.2 18.3-18.3V301c0-10.1-8.2-18.3-18.3-18.3s-18.3 8.2-18.3 18.3v101.6c0 10.1 8.2 18.3 18.3 18.3zM297.6 174.3c10.1 0 18.3-8.2 18.3-18.3V54.4c0-10.1-8.2-18.3-18.3-18.3s-18.3 8.2-18.3 18.3v101.6c0 10.1 8.2 18.3 18.3 18.3zM544.2 420.9c10.1 0 18.3-8.2 18.3-18.3V301c0-10.1-8.2-18.3-18.3-18.3s-18.3 8.2-18.3 18.3v101.6c0 10.1 8.2 18.3 18.3 18.3zM544.2 174.3c10.1 0 18.3-8.2 18.3-18.3V54.4c0-10.1-8.2-18.3-18.3-18.3s-18.3 8.2-18.3 18.3v101.6c0 10.1 8.2 18.3 18.3 18.3z"/>
  </g>
</svg>